Coordinates
version=1
nRows=11
nColumns=40
inDegrees=yes

Units are S.I. units (second, meters, Newtons, ...)
If the header above contains a line with 'inDegrees', this indicates whether rotational values are in degrees (yes) or radians (no).

endheader
time	pelvis_tilt	pelvis_list	pelvis_rotation	pelvis_tx	pelvis_ty	pelvis_tz	hip_flexion_r	hip_adduction_r	hip_rotation_r	knee_angle_r	knee_angle_r_beta	ankle_angle_r	subtalar_angle_r	mtp_angle_r	hip_flexion_l	hip_adduction_l	hip_rotation_l	knee_angle_l	knee_angle_l_beta	ankle_angle_l	subtalar_angle_l	mtp_angle_l	lumbar_extension	lumbar_bending	lumbar_rotation	arm_flex_r	arm_add_r	arm_rot_r	elbow_flex_r	pro_sup_r	wrist_flex_r	wrist_dev_r	arm_flex_l	arm_add_l	arm_rot_l	elbow_flex_l	pro_sup_l	wrist_flex_l	wrist_dev_l
      0.00000000	      1.05811140	      2.08417739	     -1.72781063	      0.26796480	      0.91294043	     -1.21412522	     -1.22766504	    -21.28835632	    -36.44716387	      7.16738736	      0.12509451	     -5.93788271	     10.66877473	      0.00000000	     -1.24883941	    -16.62170735	    -38.91477967	      7.58321921	      0.13235214	     -3.12536576	     19.08432447	      0.00000000	     -3.41397938	     -1.31242043	      0.11674117	     42.46436042	    -16.33778718	     42.46436042	     77.83829928	     45.37486723	      0.00000000	      0.00000000	     42.46436042	    -16.33778718	     42.46436042	     77.83829928	     45.37486723	      0.00000000	      0.00000000
      0.00500000	      1.06791130	      2.24382840	     -1.84014530	      0.26788689	      0.91284533	     -1.21385831	     -1.11382407	    -21.51268694	    -36.35701518	      7.33945070	      0.12809758	     -5.73222526	     10.72655145	      0.00000000	     -1.33599419	    -16.40031428	    -38.92565390	      7.44752105	      0.12998376	     -3.18329199	     18.92946910	      0.00000000	     -3.41759693	     -1.47785933	      0.38403316	     42.54883228	    -16.27198888	     42.54883228	     77.61661932	     45.32196897	      0.00000000	      0.00000000	     42.54883228	    -16.27198888	     42.54883228	     77.61661932	     45.32196897	      0.00000000	      0.00000000
      0.01000000	      1.05482580	      2.07247767	     -1.73299139	      0.26792392	      0.91294246	     -1.21408961	     -1.22159885	    -21.27047472	    -36.42592979	      7.16333095	      0.12502371	     -5.93863089	     10.69874661	      0.00000000	     -1.24664964	    -16.63801596	    -38.91632350	      7.57938540	      0.13228523	     -3.14447965	     19.10658739	      0.00000000	     -3.41100857	     -1.25800311	      0.20861588	     42.78499410	    -16.08861876	     42.78499410	     77.00820950	     45.18752860	      0.00000000	      0.00000000	     42.78499410	    -16.08861876	     42.78499410	     77.00820950	     45.18752860	      0.00000000	      0.00000000
      0.01500000	      1.10066672	      2.02359484	     -1.74310255	      0.26781488	      0.91306091	     -1.21412100	     -1.30523359	    -21.15591044	    -36.29116766	      7.01020818	      0.12235121	     -6.14672745	     10.40519907	      0.00000000	     -1.30073292	    -16.67951846	    -38.90394313	      7.56114346	      0.13196685	     -3.12172467	     19.06208513	      0.00000000	     -3.49907430	     -1.05981821	      0.44204420	     42.93335999	    -15.98230140	     42.93335999	     76.70424681	     45.13913139	      0.00000000	      0.00000000	     42.93335999	    -15.98230140	     42.93335999	     76.70424681	     45.13913139	      0.00000000	      0.00000000
      0.02000000	      1.08095147	      2.03174690	     -1.72103276	      0.26783286	      0.91300259	     -1.21413838	     -1.27263548	    -21.19921631	    -36.40046467	      7.09254025	      0.12378818	     -6.01905102	     10.58987007	      0.00000000	     -1.26067886	    -16.68440246	    -38.90243115	      7.59435322	      0.13254647	     -3.11530063	     19.08494504	      0.00000000	     -3.46744727	     -1.08922882	      0.40278799	     43.02177732	    -15.91895978	     43.02177732	     76.52407444	     45.11149019	      0.00000000	      0.00000000	     43.02177732	    -15.91895978	     43.02177732	     76.52407444	     45.11149019	      0.00000000	      0.00000000
      0.02500000	      1.07797745	      2.14094697	     -1.77249680	      0.26779086	      0.91292608	     -1.21403014	     -1.19451017	    -21.36430355	    -36.36772300	      7.22098258	      0.12602992	     -5.89631492	     10.64265608	      0.00000000	     -1.28938798	    -16.53915723	    -38.90973999	      7.53286843	      0.13147336	     -3.12094464	     19.01611610	      0.00000000	     -3.44728459	     -1.28373892	      0.37753507	     43.05413626	    -15.89657540	     43.05413626	     76.46393680	     45.10302630	      0.00000000	      0.00000000	     43.05413626	    -15.89657540	     43.05413626	     76.46393680	     45.10302630	      0.00000000	      0.00000000
      0.03000000	      1.06438000	      2.07113503	     -1.72502519	      0.26780917	      0.91295925	     -1.21409569	     -1.26568130	    -21.22201879	    -36.33874354	      7.05097926	      0.12306280	     -6.01332636	     10.48387416	      0.00000000	     -1.23842632	    -16.64631929	    -38.91410128	      7.60245535	      0.13268788	     -3.16486785	     19.09795178	      0.00000000	     -3.45468154	     -1.37767361	      0.01865550	     43.16563499	    -15.82274375	     43.16563499	     76.27750245	     45.07871622	      0.00000000	      0.00000000	     43.16563499	    -15.82274375	     43.16563499	     76.27750245	     45.07871622	      0.00000000	      0.00000000
      0.03500000	      1.08851683	      2.03985599	     -1.71953624	      0.26771520	      0.91300694	     -1.21415581	     -1.27785436	    -21.20154509	    -36.38535968	      7.07344366	      0.12345488	     -6.04913156	     10.53792261	      0.00000000	     -1.25549640	    -16.67602091	    -38.90350805	      7.60465369	      0.13272625	     -3.11082420	     19.08536674	      0.00000000	     -3.48790018	     -1.28915926	      0.07615990	     43.20402966	    -15.79808659	     43.20402966	     76.21793323	     45.07157150	      0.00000000	      0.00000000	     43.20402966	    -15.79808659	     43.20402966	     76.21793323	     45.07157150	      0.00000000	      0.00000000
      0.04000000	      1.04017337	      2.15093392	     -1.77826016	      0.26771590	      0.91285934	     -1.21401559	     -1.08101696	    -21.43584096	    -36.51628095	      7.39041047	      0.12898700	     -5.74215084	     10.81637151	      0.00000000	     -1.24537283	    -16.53041085	    -38.91241692	      7.52983006	      0.13142033	     -3.14993075	     19.03081919	      0.00000000	     -3.42763618	     -1.32525859	      0.33993848	     43.30311934	    -15.73411808	     43.30311934	     76.06761594	     45.05671575	      0.00000000	      0.00000000	     43.30311934	    -15.73411808	     43.30311934	     76.06761594	     45.05671575	      0.00000000	      0.00000000
      0.04500000	      0.97508566	      2.23601854	     -1.76790320	      0.26768981	      0.91269736	     -1.21397910	     -1.01719373	    -21.51976329	    -36.45254631	      7.37558464	      0.12872824	     -5.70976332	     10.76753902	      0.00000000	     -1.14220665	    -16.46389585	    -38.95089445	      7.59537125	      0.13256424	     -3.10978889	     19.10767941	      0.00000000	     -3.34763459	     -1.41248385	      0.43874104	     43.36783276	    -15.69460253	     43.36783276	     75.98325589	     45.04967592	      0.00000000	      0.00000000	     43.36783276	    -15.69460253	     43.36783276	     75.98325589	     45.04967592	      0.00000000	      0.00000000
      0.05000000	      1.06049541	      2.06778079	     -1.71512751	      0.26761448	      0.91295062	     -1.21414486	     -1.21604744	    -21.25453841	    -36.43349167	      7.13971400	      0.12461152	     -5.98718963	     10.59781603	      0.00000000	     -1.21270540	    -16.64802394	    -38.89402332	      7.60570843	      0.13274465	     -3.11547243	     19.08064261	      0.00000000	     -3.47429846	     -1.26370200	      0.20118666	     43.43930738	    -15.65175789	     43.43930738	     75.89545027	     45.04246167	      0.00000000	      0.00000000	     43.43930738	    -15.65175789	     43.43930738	     75.89545027	     45.04246167	      0.00000000	      0.00000000
